<?xml version="1.0" encoding="UTF-8"?>
<svg id="Layer_1" data-name="Layer 1" xmlns="http://www.w3.org/2000/svg" xmlns:xlink="http://www.w3.org/1999/xlink" version="1.1" viewBox="0 0 500 200">
  <defs>
    <style>
      .cls-1 {
        fill: url(#Dull_Brass-2);
      }

      .cls-1, .cls-2, .cls-3 {
        stroke-width: 0px;
      }

      .cls-2 {
        fill: url(#Dull_Brass);
      }

      .cls-3 {
        fill: #fff;
      }
    </style>
    <linearGradient id="Dull_Brass" data-name="Dull Brass" x1="18.08" y1="81.24" x2="157.51" y2="81.24" gradientUnits="userSpaceOnUse">
      <stop offset="0" stop-color="#ebc17d"/>
      <stop offset=".19" stop-color="#dfb77c"/>
      <stop offset=".6" stop-color="#c08329"/>
      <stop offset=".87" stop-color="#eabe81"/>
      <stop offset="1" stop-color="#eedcc3"/>
    </linearGradient>
    <linearGradient id="Dull_Brass-2" data-name="Dull Brass" x1="20.56" y1="127.68" x2="118.81" y2="127.68" xlink:href="#Dull_Brass"/>
  </defs>
  <g>
    <g>
      <path class="cls-3" d="M197.42,127.56v-.55c.76,0,2.15,0,2.15-2.77v-33.01c0-2.63-1.18-2.63-1.94-2.63v-.48h11.56v.48c-.76,0-2.01,0-2.01,2.63v35.57h2.35c14.95,0,16.96-3.67,17.99-7.96h.55v8.72h-30.66Z"/>
      <path class="cls-3" d="M235.76,110.53v-19.31c0-2.63-1.38-2.63-2.15-2.63v-.48h11.9v.48c-.76,0-2.15,0-2.15,2.63v20.49c0,12.25,4.64,15.78,10.1,15.78s10.1-3.53,10.1-15.78v-20.49c0-2.63-1.38-2.63-2.15-2.63v-.48h11.9v.48c-.76,0-2.15,0-2.15,2.63v19.31c0,11.49-4.15,17.72-17.72,17.72s-17.72-6.23-17.72-17.72Z"/>
      <path class="cls-3" d="M280.25,127.56v-.55c1.8,0,4.29-1.94,9.48-8.79l5.54-7.54-13.43-19.86c-1.18-1.73-1.94-2.21-2.98-2.21v-.48h12.6v.48c-.55,0-.9.21-.9.76s.35,1.45,1.25,2.77l8.79,13.01,5.19-7.06c2.77-3.74,3.94-6.09,3.94-7.54,0-1.32-.9-1.94-2.21-1.94v-.48h9.99v.48c-1.8,0-4.29,2.01-9.48,8.79l-6.3,9.16,12.16,18.25c1.18,1.73,1.94,2.21,2.98,2.21v.55h-12.59v-.55c.55,0,.9-.21.9-.76s-.35-1.45-1.25-2.77l-7.52-11.4-4.5,5.52c-2.77,3.67-3.87,6.02-3.87,7.54,0,1.31.9,1.87,2.21,1.87v.55h-9.99Z"/>
      <path class="cls-3" d="M324.54,110.53v-19.31c0-2.63-1.38-2.63-2.15-2.63v-.48h11.9v.48c-.76,0-2.15,0-2.15,2.63v20.49c0,12.25,4.64,15.78,10.1,15.78s10.1-3.53,10.1-15.78v-20.49c0-2.63-1.38-2.63-2.15-2.63v-.48h11.9v.48c-.76,0-2.15,0-2.15,2.63v19.31c0,11.49-4.15,17.72-17.72,17.72s-17.72-6.23-17.72-17.72Z"/>
      <path class="cls-3" d="M368.55,127.56v-.55c.76,0,1.94,0,1.94-2.63v-32.94c0-2.84-1.38-2.84-2.15-2.84v-.48h16.61c10.03,0,17.51,2.98,17.51,10.1,0,6.44-5.95,9.48-14.33,10.04,5.95.62,7.75,2.56,9.9,6.64l5.12,9.97c1.04,1.94,1.73,2.15,2.42,2.15v.55h-11.56v-.55c.55,0,.83-.35.83-.83,0-.35-.21-.9-.42-1.38l-6.5-12.94c-1.52-2.98-3.6-3.46-5.81-3.46h-4.01v15.99c0,2.63,1.25,2.63,2.01,2.63v.55h-11.56ZM378.11,107.63h4.43c9,0,12.32-4.91,12.32-9.41s-3.32-9.41-12.32-9.41h-4.43v18.82Z"/>
      <path class="cls-3" d="M417,127.56v-.55c.76,0,2.01,0,2.01-2.63v-13.01l-11.21-20.97c-.69-1.31-1.32-1.8-2.22-1.8v-.48h11.21v.48c-.28,0-.49.21-.49.55,0,.42.14.9.55,1.66l8.7,17.79,6.02-11.7c1.59-2.91,2.15-4.84,2.15-6.09,0-1.87-1.32-2.21-2.22-2.21v-.48h7.98v.48c-1.04,0-2.35.97-4.64,5.26l-8.24,15.71v14.81c0,2.63,1.18,2.63,1.94,2.63v.55h-11.56Z"/>
    </g>
    <g>
      <path class="cls-3" d="M197.83,71.24v-.55c.76,0,1.94,0,1.94-2.63v-35.57c-10.87,0-12.87,3.67-13.91,7.96h-.55v-8.65h36.54v8.65h-.49c-1.04-4.29-3.04-7.96-13.98-7.96v35.57c0,2.63,1.25,2.63,2.01,2.63v.55h-11.56Z"/>
      <path class="cls-3" d="M227.38,71.24v-.55c.76,0,2.01,0,2.01-2.63v-33.15c0-2.63-1.25-2.63-2.01-2.63v-.48h11.56v.48c-.76,0-1.94,0-1.94,2.63v15.69h17.86v-15.69c0-2.63-1.25-2.63-2.01-2.63v-.48h11.56v.48c-.76,0-1.94,0-1.94,2.63v33.15c0,2.63,1.18,2.63,1.94,2.63v.55h-11.56v-.55c.76,0,2.01,0,2.01-2.63v-15.41h-17.86v15.41c0,2.63,1.18,2.63,1.94,2.63v.55h-11.56Z"/>
      <path class="cls-3" d="M269.94,71.24v-.55c.76,0,2.15,0,2.15-2.77v-32.8c0-2.84-1.38-2.84-2.15-2.84v-.48h30.1v8.65h-.48c-1.04-4.29-3.04-7.96-17.72-7.96h-2.15v18.62c10.03,0,14.95-.48,15.16-4.43h.55v9.62h-.55c-.21-3.94-5.12-4.43-15.16-4.43v18.62h2.15c14.67,0,16.68-3.67,17.72-7.96h.48v8.72h-30.1Z"/>
    </g>
    <g>
      <path class="cls-3" d="M197.42,165.57c0-10.93,4.71-20.07,20.07-20.07,11.83,0,15.36,4.98,15.36,9.07,0,3.25-2.01,5.26-4.98,5.26-1.32,0-2.35-.28-2.98-.62.76-.97,1.31-2.7,1.31-4.91,0-3.74-1.73-8.1-8.72-8.1-8.3,0-12.46,6.92-12.46,17.65,0,13.56,6.78,20.07,15.43,20.07,7.13,0,11.49-4.64,11.49-10.38h.55c0,6.57-4.5,12.8-14.81,12.8-14.6,0-20.28-9.55-20.28-20.76Z"/>
      <path class="cls-3" d="M238.39,165.92c0-11.42,5.26-20.42,19.79-20.42s19.79,9,19.79,20.42-5.19,20.42-19.79,20.42-19.79-9-19.79-20.42ZM270.36,165.92c0-14.53-5.67-19.72-12.18-19.72s-12.18,5.19-12.18,19.72,5.67,19.65,12.18,19.65,12.18-5.19,12.18-19.65Z"/>
      <path class="cls-3" d="M281.43,185.64v-.55c1.25,0,3.53-.62,3.53-7.41v-23.6c0-6.78-2.28-7.41-3.53-7.41v-.48h10.29l13.77,30.8,13.08-30.8h10.4v.48c-.76,0-2.15,0-2.15,2.84v32.94c0,2.63,1.25,2.63,2.01,2.63v.55h-11.56v-.55c.76,0,1.94,0,1.94-2.63v-34.19l-15.78,37.37h-1.73l-15.99-35.5v27.54c0,6.78,2.28,7.41,3.46,7.41v.55h-7.75Z"/>
      <path class="cls-3" d="M334.72,185.64v-.55c.76,0,1.94,0,1.94-2.63v-32.94c0-2.84-1.38-2.84-2.15-2.84v-.48h16.61c10.38,0,17.86,2.98,17.86,10.1s-7.47,10.17-17.86,10.17h-6.85v15.99c0,2.63,1.25,2.63,2.01,2.63v.55h-11.56ZM344.27,165.71h5.12c9,0,11.97-4.91,11.97-9.41s-2.98-9.41-11.97-9.41h-5.12v18.82Z"/>
      <path class="cls-3" d="M362.05,185.64v-.55c1.04,0,3.53-1.87,5.81-6.51l15.57-32.39h1.66l18.06,36.89c.76,1.52,1.38,2.01,2.35,2.01v.55h-11.28v-.55c.41,0,.69-.21.69-.76,0-.28-.14-.83-.48-1.45l-5.31-11h-16.5l-2.04,4.36c-1.11,2.28-1.52,4.01-1.52,5.4,0,2.42,1.45,3.46,2.98,3.46v.55h-9.99ZM373.01,170.9h15.55l-7.52-17.02-8.03,17.02Z"/>
      <path class="cls-3" d="M406.89,185.64v-.55c1.25,0,3.53-.62,3.53-7.41v-23.6c0-6.78-2.28-7.41-3.53-7.41v-.48h10.59l20.53,28.37v-20.49c0-6.78-2.63-7.41-3.53-7.41v-.48h8.39v.48c-.83,0-3.53.62-3.53,7.41v31.56h-1.59l-25.93-35.16v27.2c0,6.78,2.63,7.41,3.46,7.41v.55h-8.39Z"/>
      <path class="cls-3" d="M458.45,185.64v-.55c.76,0,2.01,0,2.01-2.63v-13.01l-11.21-20.97c-.69-1.31-1.32-1.8-2.22-1.8v-.48h11.21v.48c-.28,0-.49.21-.49.55,0,.42.14.9.55,1.66l8.7,17.79,6.02-11.7c1.59-2.91,2.15-4.84,2.15-6.09,0-1.87-1.32-2.21-2.22-2.21v-.48h7.98v.48c-1.04,0-2.35.97-4.64,5.26l-8.24,15.71v14.81c0,2.63,1.18,2.63,1.94,2.63v.55h-11.56Z"/>
    </g>
  </g>
  <g>
    <path class="cls-2" d="M91.25,74.46v44.06c0,2.43,1.97,4.4,4.4,4.4h8.24c40.88,0,48.34-4.06,51.3-17.08l.12-.51h2.19v22.45h-82.07v-4.66h.65c2.27,0,5.69,0,5.69-8.14V39.72c-2.87-.1-5.97-.16-9.43-.16v105.88c0,7.12,2.48,7.12,4.67,7.12h.65v2.32h-20.11v-2.32h.65c2.19,0,4.67,0,4.67-7.12V39.56c-33.01.05-39.58,4.35-42.47,17.08l-.12.51h-2.19v-23.04h63.7v-17.07c0-7.12-2.48-7.12-4.67-7.12h-.65v-2.32h20.11v2.32h-.65c-2.19,0-4.67,0-4.67,7.12v17.07h25.87v23.04h-2.19l-.12-.51c-2.13-9.39-6.39-14.53-23.56-16.3v34.11Z"/>
    <path class="cls-1" d="M118.64,155.9c-5.68,19.1-19.79,33.55-45.25,33.55-34.59,0-52.82-27.53-52.82-61.43s17.9-62.12,53-62.12c25.98,0,41.3,14.45,45.25,34.59h-9.29c-5.51-15.66-15.66-25.98-36.48-25.98-29.94,0-42.5,27.36-42.5,53.34s12.39,53,43.19,53c19.62,0,29.6-10.15,35.62-24.95h9.29Z"/>
  </g>
</svg>